<?xml version="1.0" encoding="UTF-8"?>
<svg id="Layer_2" data-name="Layer 2" xmlns="http://www.w3.org/2000/svg" viewBox="0 0 64.16 64.18">
  <defs>
    <style>
      .cls-1 {
        fill: #384a9d;
      }

      .cls-2 {
        fill: #fff;
      }
    </style>
  </defs>
  <g id="octomatic_favicon" data-name="Layer 1">
    <rect class="cls-1" width="64.16" height="64.18" rx="4.7" ry="4.7"/>
    <g>
      <path class="cls-2" d="M22.3,51.32c.09-5.39,3.66-9.34,9-9.96,4.69-.54,9.5,3.06,10.35,7.8.22,1.21.18,2.46.4,3.66.88,4.62,5.09,7.71,9.78,7.24,4.45-.44,7.97-4.36,8.01-8.9.04-4.89-3.95-8.93-8.93-9.04-5.08-.11-8.89-3.34-9.74-8.31-.1-.56-.12-1.13-.15-1.7.03-.57.05-1.14.15-1.7.85-4.97,4.66-8.2,9.74-8.31,4.98-.11,8.97-4.15,8.93-9.04-.04-4.54-3.56-8.46-8.01-8.9-4.7-.47-8.9,2.61-9.78,7.24-.23,1.2-.19,2.45-.4,3.66-.85,4.74-5.67,8.35-10.35,7.8-5.35-.62-8.91-4.56-9-9.96-.08-4.84-4.08-8.77-8.94-8.77-4.81,0-8.65,3.62-9.02,8.51-.34,4.48,3.1,8.66,7.7,9.33.99.14,2.01.08,2.98.27,4.83.92,7.98,4.75,8.08,9.74,0,.04,0,.08,0,.13,0,.04,0,.08,0,.12-.1,4.99-3.25,8.82-8.08,9.74-.97.19-1.99.12-2.98.27-4.61.67-8.04,4.85-7.7,9.33.37,4.89,4.21,8.51,9.02,8.51,4.86,0,8.86-3.93,8.94-8.77Z"/>
      <path class="cls-2" d="M25.19,53.32c.01-3.85,3.1-6.93,6.91-6.91,3.77.02,6.86,3.13,6.87,6.91,0,3.81-3.11,6.91-6.94,6.89-3.82-.02-6.85-3.07-6.84-6.88Z"/>
      <path class="cls-2" d="M46.07,32.13c.01-3.85,3.1-6.93,6.91-6.91,3.77.02,6.86,3.13,6.87,6.91,0,3.81-3.11,6.91-6.94,6.89-3.82-.02-6.85-3.07-6.84-6.88Z"/>
      <path class="cls-2" d="M4.31,32.13c.01-3.85,3.1-6.93,6.91-6.91,3.77.02,6.86,3.13,6.87,6.91,0,3.81-3.11,6.91-6.94,6.89-3.82-.02-6.85-3.07-6.84-6.88Z"/>
      <path class="cls-2" d="M25.19,10.89c.01-3.85,3.1-6.93,6.91-6.91,3.77.02,6.86,3.13,6.87,6.91,0,3.81-3.11,6.91-6.94,6.89-3.82-.02-6.85-3.07-6.84-6.88Z"/>
    </g>
  </g>
</svg>