<?xml version="1.0" encoding="UTF-8"?>
<svg id="Layer_2" data-name="Layer 2" xmlns="http://www.w3.org/2000/svg" viewBox="0 0 686.68 134.05">
  <defs>
    <style>
      .cls-1 {
        fill: #fff;
      }
    </style>
  </defs>
  <g id="Layer_1-2" data-name="Layer 1">
    <g>
      <g>
        <path class="cls-1" d="M225.48,67.21c0,10.56-5.35,19.82-13.58,25.24-4.73,3.22-10.49,5.08-16.6,5.08-16.8,0-30.31-13.58-30.31-30.31s13.51-30.24,30.31-30.24c6.1,0,11.86,1.85,16.6,5.01,8.23,5.42,13.58,14.74,13.58,25.24ZM195.31,83.95c9.12,0,16.6-7.47,16.6-16.73s-7.48-16.66-16.6-16.66-16.73,7.47-16.73,16.66,7.47,16.73,16.73,16.73Z"/>
        <path class="cls-1" d="M277.6,76.34l11.32,7.61c-5.49,8.09-14.74,13.58-25.3,13.58-6.17,0-11.93-1.85-16.66-5.08-8.23-5.42-13.58-14.67-13.58-25.24s5.35-19.82,13.58-25.24c4.73-3.15,10.49-5.01,16.66-5.01,10.56,0,19.82,5.42,25.3,13.58l-11.32,7.54c-3.02-4.53-8.16-7.54-13.99-7.54-9.19,0-16.66,7.47-16.66,16.66s7.47,16.73,16.66,16.73c5.83,0,10.97-3.02,13.99-7.61Z"/>
        <path class="cls-1" d="M296.1,67.21V20.65h13.58v16.32h13.65v13.58h-13.65v16.66c0,9.26,7.41,16.73,16.66,16.73v13.58c-6.17,0-11.93-1.85-16.66-5.08-8.16-5.42-13.58-14.67-13.58-25.24Z"/>
        <path class="cls-1" d="M392.66,67.21c0,10.56-5.35,19.82-13.58,25.24-4.73,3.22-10.49,5.08-16.6,5.08-16.8,0-30.31-13.58-30.31-30.31s13.51-30.24,30.31-30.24c6.1,0,11.86,1.85,16.6,5.01,8.23,5.42,13.58,14.74,13.58,25.24ZM362.48,83.95c9.12,0,16.6-7.47,16.6-16.73s-7.47-16.66-16.6-16.66-16.73,7.47-16.73,16.66,7.47,16.73,16.73,16.73Z"/>
        <path class="cls-1" d="M414.12,40.33c3.77-2.19,8.16-3.36,12.76-3.36,7.82,0,14.74,3.36,19.61,8.78,4.8-5.42,11.86-8.78,19.61-8.78,14.47,0,26.4,11.86,26.4,26.4v34.15h-13.65v-34.15c0-7.06-5.76-12.82-12.76-12.82s-12.82,5.76-12.82,12.82v34.15h-13.58v-34.15c0-7.06-5.76-12.82-12.82-12.82s-12.76,5.76-12.76,12.82v34.15h-13.58v-60.55h13.58v3.36Z"/>
        <path class="cls-1" d="M501.06,67.21c0-10.49,5.42-19.82,13.58-25.24,4.8-3.15,10.56-5.01,16.73-5.01s11.86,1.85,16.66,5.01v-5.01h13.58v60.55h-13.58v-5.08c-4.8,3.22-10.49,5.08-16.66,5.08s-11.93-1.85-16.73-5.08c-8.16-5.42-13.58-14.67-13.58-25.24ZM548.03,67.21c0-9.19-7.47-16.66-16.66-16.66s-16.73,7.47-16.73,16.66,7.47,16.73,16.73,16.73,16.66-7.47,16.66-16.73Z"/>
        <path class="cls-1" d="M570.18,67.21V20.65h13.58v16.32h13.65v13.58h-13.65v16.66c0,9.26,7.4,16.73,16.66,16.73v13.58c-6.17,0-11.93-1.85-16.66-5.08-8.16-5.42-13.58-14.67-13.58-25.24Z"/>
        <path class="cls-1" d="M615.78,14.75c3.77,0,6.79,3.02,6.79,6.79s-3.02,6.79-6.79,6.79-6.79-3.09-6.79-6.79,3.09-6.79,6.79-6.79ZM608.99,36.97h13.58v60.55h-13.58v-60.55Z"/>
        <path class="cls-1" d="M675.37,76.34l11.32,7.61c-5.49,8.09-14.74,13.58-25.31,13.58-6.17,0-11.93-1.85-16.66-5.08-8.23-5.42-13.58-14.67-13.58-25.24s5.35-19.82,13.58-25.24c4.73-3.15,10.49-5.01,16.66-5.01,10.56,0,19.82,5.42,25.31,13.58l-11.32,7.54c-3.02-4.53-8.16-7.54-13.99-7.54-9.19,0-16.66,7.47-16.66,16.66s7.47,16.73,16.66,16.73c5.83,0,10.97-3.02,13.99-7.61Z"/>
      </g>
      <g>
        <path class="cls-1" d="M42.87,112.87c.21-12.86,8.72-22.26,21.47-23.74,11.17-1.3,22.65,7.3,24.68,18.6.52,2.87.42,5.86.97,8.72,2.1,11.02,12.13,18.37,23.32,17.25,10.6-1.06,18.99-10.39,19.09-21.22.11-11.66-9.41-21.29-21.29-21.55-12.1-.26-21.18-7.97-23.21-19.81-.23-1.33-.28-2.69-.35-4.04.07-1.35.12-2.71.35-4.04,2.03-11.85,11.11-19.55,23.21-19.81,11.88-.26,21.39-9.89,21.29-21.55-.1-10.83-8.49-20.16-19.09-21.22-11.19-1.12-21.22,6.23-23.32,17.25-.55,2.86-.45,5.85-.97,8.72-2.03,11.3-13.51,19.89-24.68,18.6-12.75-1.48-21.25-10.88-21.47-23.74C42.68,9.76,33.14.4,21.56.4,10.08.4.93,9.03.05,20.69c-.81,10.68,7.38,20.64,18.37,22.24,2.35.34,4.78.19,7.1.63,11.51,2.19,19.02,11.33,19.26,23.23,0,.1.02.2.02.3,0,.1-.02.2-.02.3-.24,11.9-7.75,21.04-19.26,23.23-2.32.44-4.75.29-7.1.63C7.44,92.85-.75,102.8.05,113.48c.88,11.65,10.03,20.29,21.5,20.29,11.58,0,21.12-9.36,21.32-20.9Z"/>
        <path class="cls-1" d="M49.78,117.65c.03-9.17,7.39-16.53,16.48-16.48,8.98.04,16.35,7.45,16.37,16.47.02,9.09-7.41,16.47-16.54,16.42-9.11-.05-16.33-7.32-16.3-16.4Z"/>
        <path class="cls-1" d="M99.55,67.13c.03-9.17,7.39-16.53,16.48-16.48,8.98.04,16.35,7.45,16.37,16.47.02,9.09-7.41,16.47-16.54,16.42-9.11-.05-16.33-7.32-16.3-16.4Z"/>
        <path class="cls-1" d="M0,67.13c.03-9.17,7.39-16.53,16.48-16.48,8.98.04,16.35,7.45,16.37,16.47.02,9.09-7.41,16.47-16.54,16.42C7.2,83.47-.03,76.21,0,67.13Z"/>
        <path class="cls-1" d="M49.78,16.48C49.8,7.32,57.16-.05,66.25,0c8.98.04,16.35,7.45,16.37,16.47.02,9.09-7.41,16.47-16.54,16.42-9.11-.05-16.33-7.32-16.3-16.4Z"/>
      </g>
    </g>
  </g>
</svg>