<?xml version="1.0" encoding="UTF-8"?>
<svg id="Layer_2" data-name="Layer 2" xmlns="http://www.w3.org/2000/svg" xmlns:xlink="http://www.w3.org/1999/xlink" viewBox="0 0 94.09 96.83">
  <defs>
    <style>
      .cls-1, .cls-2 {
        fill: none;
      }

      .cls-3 {
        fill: #323232;
      }

      .cls-4 {
        fill: #696e75;
      }

      .cls-5 {
        fill: #952105;
      }

      .cls-6 {
        fill: #182329;
      }

      .cls-7 {
        clip-path: url(#clippath-1);
      }

      .cls-8 {
        fill: #fdfcfc;
      }

      .cls-9 {
        fill: #282a2e;
      }

      .cls-10 {
        fill: #fefefe;
      }

      .cls-11 {
        fill: #010100;
      }

      .cls-12 {
        clip-path: url(#clippath);
      }

      .cls-2 {
        stroke: #952105;
        stroke-miterlimit: 10;
        stroke-width: .91px;
      }
    </style>
    <clipPath id="clippath">
      <rect class="cls-1" x="0" width="94.09" height="96.83"/>
    </clipPath>
    <clipPath id="clippath-1">
      <rect class="cls-1" x="0" width="94.09" height="96.83"/>
    </clipPath>
  </defs>
  <g id="Layer_1-2" data-name="Layer 1">
    <g class="cls-12">
      <g class="cls-7">
        <path class="cls-11" d="M46.97,23.18l.13-2.57c0-.11-.07-.22-.18-.25-.31-.08-.81-.36-.79-1.07.03-.87.68-.96,1.01-1.25,0,0-.03.96,0,0,.05-1.74.31-8.2.37-9.97.06-1.47.22-6.52.33-7.78.01-.12.12-.22.33-.23.21,0,.34.03.39.22l.58,11.35s.09,4.44.26,6.3c0,.1.08.19.18.22.16.05.41.15.59.35.64.71.4,1.62-.55,1.86-.12.03-.2.14-.19.26.03.52.24,3.29.24,3.29h35.65s.02-.01.03-.01c4.05.39,7.49,3.37,8.25,7.39,0,.02-.03,0-.03,0,0,0,.29,38.26.03,57.33,0,.02,0,.03,0,.05-.84,4.28-4.28,7.2-8.63,7.48,0,0-.01,0-.02,0H9.14s-.02,0-.02,0c-4.53-.36-8.14-3.86-8.54-8.4,0,0,0-.02,0-.03v-55.27s0-.01,0-.02c.33-4.61,3.95-8.18,8.55-8.53,0,0,.01,0,.02,0l37.77.04.06-.73ZM48.46,8.74l-.16-5.29h-.25s.15,5.31.15,5.31l.26-.03ZM48.11,9.6v1.7s.33,0,.33,0l-.07-1.73M27.6,56.7c.13,0,.24.1.25.23.05,1.13-1.25,2.08-2.09,2.7-1.13.84-2.76,1.69-4.18,1.84-13.51,1.41-12.11-21.92.6-18.77,2.2.55,3.89,2,5.03,3.9.08.13.24.16.36.07l5.01-3.72c.08-.06.12-.17.09-.27-.16-.53-1.08-1.78-1.31-2.06-4.09-5.01-11.71-6.07-17.47-3.52-8.44,3.74-11.34,13.93-7.73,22.15,3.59,8.18,14.09,12.03,21.24,6.01.16-.14.41-.02.41.19v2.22c0,.14.11.25.25.25h5.53c.14,0,.25-.11.25-.25v-16.2c0-.14-.11-.25-.25-.25h-11.55c-.14,0-.25.11-.25.25v4.98c0,.14.11.25.25.25h5.55ZM44.76,63.87c1.13-7.46,1.61-15.04,1.83-22.73.05-1.61.06-3.44.07-4.85,0-.14-.11-.25-.25-.25h-10.96c-.14,0-.25.12-.25.25v6.07c0,.14.11.25.25.25h8.95c.14,0,.25.11.25.25.05,6.69.05,14.35.11,21.02M61.23,36.04h-10.99c-.14,0-.25.11-.25.25.03,1.72.05,3.44.13,5.16.29,6.83.33,15.15,1.79,22.42v-21.01c0-.14.1-.25.24-.25h9.02c.07,0,.13-.03.18-.07l.06-.06s.07-.11.07-.18v-6.01c0-.14-.11-.25-.25-.25M59.37,67.92h6.86c.11,0,.2-.07.23-.17l2.41-6.79c.04-.1.13-.17.23-.17l9.14.03c.11,0,.2.07.23.17l2.23,6.76c.03.1.13.17.24.17h6.86c.17,0,.29-.17.23-.33l-11.13-31.4c-.04-.1-.13-.17-.23-.17l-6.26.02c-.11,0-.2.07-.23.17l-11.06,31.37c-.06.16.06.33.23.33M8.24,73.43s-.04,0-.06,0c-2,.49-3.45,2.05-3.63,4.13-.16,1.84-.16,5.29,0,7.13.18,2.13,1.79,3.82,3.9,4.15.01,0,.03,0,.04,0h76.85s.03.01.04.01c1.66-.23,3.26-1.43,3.75-3.07.44-1.47.45-7.74.04-9.22-.45-1.6-2.01-2.95-3.67-3.15-.01,0-.02,0-.03,0l-77.22.02Z"/>
        <path class="cls-8" d="M27.84,56.73h-6.02v-5.47h12.04v16.7h-6.02v-3.01c-7.15,6.53-17.98,2.68-21.65-5.66-3.61-8.22-.71-18.41,7.73-22.15,5.76-2.55,13.38-1.5,17.47,3.52.26.32,1.48,1.99,1.31,2.25l-5.33,3.96c-1.15-2.01-2.88-3.57-5.17-4.14-12.71-3.15-14.11,20.18-.6,18.77,1.42-.15,3.05-1,4.18-1.84.89-.66,2.32-1.7,2.06-2.93"/>
        <path class="cls-8" d="M59.05,67.95l11.24-31.87,6.61-.02,11.31,31.89h-7.39l-2.35-7.1-9.5-.03-2.53,7.13h-7.39ZM77.25,55.77l-3.63-11.09-3.63,11.09h7.25Z"/>
        <path class="cls-3" d="M49.54,33.54c.34,9.29.46,20.03,1.58,29.27.21,1.77.56,3.52.8,5.29-1,0-2.01,0-3.01,0l-.09-34.86h-.99s-.02,34.86-.02,34.86c-1,0-2.01,0-3.01,0,.72-4.32,1.18-8.7,1.5-13.07.52-6.92.77-13.88.95-20.81,0-.24,0-.68,0-.68,0,0-.83-.04-1.03-.07-.28-.05-.32-.26-.34-.27.12-.73,1.13-.78,1.7-.83.88-.07,2.92-.2,3.22.83-.02,0-.07.2-.23.25,0,0-.34.14-1.07.1-.72-.04,0,0,0,0"/>
        <path class="cls-4" d="M47.83,68.09l.02-34.85h.99s.09,34.85.09,34.85c-.36,0-.73,0-1.09,0"/>
        <path class="cls-3" d="M49.6,19.65c-.24.14-.43.27-.69.36l.28,8.26c-.49-.04-1.15-.04-1.64,0l.28-8.26c-.27-.09-.46-.22-.69-.36.41-.62,2.05-.62,2.46,0"/>
        <path class="cls-8" d="M51.52,31.9c.03.18.25.44-.03.86-.16.24-.34.33-.65.37-.3-1.02-2.34-.89-3.22-.83-.58.04-1.59.1-1.7.83-.19-.07-.57-.2-.72-.44-.29-.45.05-.74.04-.79,1.75-.85,4.54-.81,6.3,0"/>
        <rect class="cls-8" x="46.59" y="29.91" width="3.42" height=".14"/>
        <path class="cls-3" d="M48.59,13.58l.3,5.11c-.26-.04-.83-.04-1.09,0,.11-1.57.23-5.11.23-5.11h.57Z"/>
        <path class="cls-3" d="M50.96,29.43c.16.07-.04.31-.04.31-.27-.07-1.14-.21-1.54-.26-1.07-.13-2.05,0-2.05,0-.22,0-1.29.2-1.57.27-.14-.17-.05-.31,0-.33,2.26-.76,3.2-.89,5.21,0"/>
        <path class="cls-8" d="M47.49,28.32c.49-.03,1.15-.03,1.64,0,.51.04,1.48-.03,1.37.68-.87-.24-3.51-.23-4.38,0-.11-.71.86-.65,1.37-.68"/>
        <path class="cls-8" d="M47.83,18.69c.26-.04.83-.04,1.09,0,.26.04.77.17.89.41l.05.54c-.08.05-.22-.01-.26.01-.41-.62-2.05-.62-2.46,0-.04-.02-.18.04-.26-.01l.05-.54c.13-.24.63-.37.89-.41"/>
        <path class="cls-3" d="M48.47,8.79h-.42s-.07-5.38-.07-5.38h.37s.13,5.38.13,5.38"/>
        <path class="cls-5" d="M50.55,28.91c.2.09.5.18.41.52-1.66-.52-3.55-.52-5.21,0-.37-1.09,4.35-.73,4.8-.52"/>
        <polygon class="cls-3" points="48.03 9 48.47 9.01 48.53 11.64 48.04 11.65 48.03 9"/>
        <polygon class="cls-4" points="48.02 13.43 48.03 11.77 48.54 11.78 48.58 13.43 48.02 13.43"/>
        <path class="cls-4" d="M51.52,31v.27c-.11-.14-.19-.19-.14-.41.05.02.1.09.14.14"/>
        <polygon class="cls-11" points="77.25 55.77 70 55.77 73.62 44.69 77.25 55.77"/>
        <path class="cls-4" d="M51.25,30.87c-.08-.03-.14.08-.14.14-1.36-.34-2.78-.31-4.18-.28-.33,0-.93.5-.82-.02,1.73-.11,3.51-.54,5.14.17"/>
        <path class="cls-11" d="M33.05,85.47v-8.35h4.17c.22,0,1.2.46,1.43.62,2.21,1.53,2.3,5.34.13,6.96-.26.2-1.31.76-1.56.76h-4.17ZM35.37,83.42c3.55.68,3.55-4.94,0-4.24v4.24Z"/>
        <path class="cls-11" d="M79.3,85.47h-2.39l-1.64-2.46h-.62v2.46h-2.33v-8.35h4.45c.3,0,1.15.7,1.37.96,1.27,1.5.77,3.05-.35,4.45l1.51,2.94ZM74.65,80.95c1.27.16,2.41-.17,1.71-1.65l-1.71-.13v1.78Z"/>
        <polygon class="cls-11" points="9.23 77.12 9.23 80.13 11.83 80.13 11.83 77.12 14.16 77.12 14.16 85.47 11.83 85.47 11.83 82.18 9.23 82.18 9.23 85.47 6.91 85.47 6.91 77.12 9.23 77.12"/>
        <path class="cls-11" d="M23.48,81.3c0,2.34-1.89,4.23-4.23,4.23s-4.23-1.89-4.23-4.23,1.89-4.23,4.23-4.23,4.23,1.89,4.23,4.23M20.55,82.96c.88-.92.69-3.32-.63-3.72-2.98-.93-3.19,3.84-1.16,4.17.6.1,1.36,0,1.79-.45"/>
        <path class="cls-11" d="M32.24,81.3c0,2.34-1.89,4.23-4.23,4.23s-4.23-1.89-4.23-4.23,1.89-4.23,4.23-4.23,4.23,1.89,4.23,4.23M29.3,82.96c.88-.92.69-3.32-.63-3.72-2.98-.93-3.19,3.84-1.16,4.17.6.1,1.36,0,1.79-.45"/>
        <polygon class="cls-11" points="49.6 77.12 49.6 79.17 46.18 79.17 46.18 80.27 49.06 80.27 49.06 82.18 46.18 82.18 46.18 83.42 49.74 83.42 49.74 85.47 43.86 85.47 43.86 77.12 49.6 77.12"/>
        <polygon class="cls-11" points="71.23 77.12 71.23 79.17 67.81 79.17 67.81 80.27 70.68 80.27 70.68 82.18 67.81 82.18 67.81 83.42 71.36 83.42 71.36 85.47 65.48 85.47 65.48 77.12 71.23 77.12"/>
        <path class="cls-11" d="M60.69,82.87v2.6h-2.33v-8.35h4.17c.4,0,1.33.83,1.57,1.16.89,1.24.7,3.06-.48,4.03-.16.13-.81.55-.95.55h-1.98ZM62.16,80.78c.57-1.48-.08-1.77-1.47-1.61v1.78s1.47-.17,1.47-.17Z"/>
        <polygon class="cls-11" points="57.68 77.12 55.08 81.29 57.54 85.47 55.08 85.47 53.78 83 52.41 85.47 50.01 85.47 52.48 81.31 49.88 77.12 52.27 77.12 53.78 79.58 55.28 77.12 57.68 77.12"/>
        <polygon class="cls-11" points="86.42 77.12 86.42 79.17 84.09 79.17 84.09 85.47 81.76 85.47 81.76 79.17 79.51 79.17 79.3 77.12 86.42 77.12"/>
        <path class="cls-10" d="M35.37,83.42v-4.24c3.55-.7,3.55,4.92,0,4.24"/>
        <path class="cls-8" d="M74.65,80.95v-1.78l1.71.13c.7,1.48-.45,1.81-1.71,1.65"/>
        <path class="cls-8" d="M20.55,82.96c-.43.45-1.2.55-1.79.45-2.02-.33-1.82-5.1,1.16-4.17,1.32.41,1.51,2.81.63,3.72"/>
        <path class="cls-8" d="M29.3,82.96c-.43.45-1.2.55-1.79.45-2.02-.33-1.82-5.1,1.16-4.17,1.32.41,1.51,2.81.63,3.72"/>
        <path class="cls-8" d="M62.16,80.78l-1.47.17v-1.78c1.4-.16,2.04.13,1.47,1.61"/>
        <path class="cls-9" d="M45.26,31.21c-.09.02-.16.05-.16.05-.08.05-.19.09-.16.32,0,.25.28.32.28.34,1.75-.81,4.03-.91,6.33-.03-.03-.01.45-.33.11-.55-3.39-1.09-4.76-.52-6.44-.1"/>
        <path class="cls-4" d="M45.24,30.97v.27c.11-.14.19-.19.14-.41-.05.02-.1.09-.14.14"/>
        <path class="cls-8" d="M48.4,29.31c.84,0,1.78.13,2.56.44.2.08.85.2.76,1.63-2.66-.95-4.48-.61-6.7-.05-.37-2.01,2.54-2.01,3.38-2.01"/>
        <path class="cls-9" d="M50.32,33.65c.39.03.54-.29.53-.46-.02-1.19-4.86-1.25-4.96-.02.06.48.88.5.88.5,0,0,.87-.2,1.62-.15l1.94.14Z"/>
        <path class="cls-9" d="M45.28,30.13s0,0,0,0c-.02,0-.1.08-.11.15l.02-.02c.92-.27,3.8-.69,6.4.09.02.01.04,0-.02-.11-.03-.05-.06-.08-.06-.08-3.07-.7-5.19-.26-6.19-.04"/>
        <path class="cls-9" d="M45,30.74s0,0,0,0c-.02,0-.01.12-.02.17v-.05c.97-.38,3.71-.99,6.74-.03,0,0,0,.1,0,0,0-.08-.02-.12-.02-.12-3.24-.98-5.58-.29-6.63.02"/>
        <path class="cls-6" d="M47.87,19.24c.15-.03.41-.12,1.06-.02.16.02.41.03.74.43l-.69.36s0,.01,0,.01c-.14-.26-.72-.42-1.09-.01-.02-.02-.19-.05-.42-.2l-.26-.16c.07-.23.51-.37.67-.41"/>
        <rect class="cls-2" x=".45" y="23.97" width="93.16" height="72.41" rx="8.67" ry="8.67"/>
        <rect class="cls-5" x="37.54" y="18.41" width=".11" height=".03"/>
        <polygon class="cls-11" points="47.68 24.43 46.9 24.43 46.95 23.51 47.71 23.49 47.68 24.43"/>
        <polygon class="cls-3" points="47.71 23.49 49.03 23.49 49.06 24.44 47.68 24.43 47.71 23.49"/>
        <polyline class="cls-11" points="49.65 23.51 49.71 24.44 49.06 24.42 49.03 23.46"/>
        <rect class="cls-2" x="4.72" y="73.72" width="84.32" height="15.02" rx="4.46" ry="4.46"/>
      </g>
    </g>
  </g>
</svg>