<?xml version="1.0" encoding="UTF-8"?>
<svg id="Layer_2" data-name="Layer 2" xmlns="http://www.w3.org/2000/svg" viewBox="0 0 130.17 32.91">
  <defs>
    <style>
      .cls-1 {
        fill: #a7b731;
      }

      .cls-2 {
        fill: #731a3e;
      }
    </style>
  </defs>
  <g id="Layer_1-2" data-name="Layer 1">
    <path class="cls-2" d="M17.08,23.43c-.16-2.51-.31-5.88-.24-8.7h-.08c-.47,2.82-1.18,6.03-1.65,8.15l-2.27,9.4h-3.6l-2.35-9.33c-.47-2.12-1.25-5.41-1.65-8.23h-.08c0,2.9-.24,6.19-.39,8.78l-.39,9.17H0L1.88,6.35h5.41l2.12,9.48c.71,3.37,1.41,6.27,1.88,9.25h.08c.39-2.9.94-5.88,1.72-9.25l2.12-9.48h5.41l1.65,26.33h-4.7l-.47-9.25ZM29.94,23.12c0-2.74.39-6.03,2.35-6.03s2.27,4.23,2.27,6.03c0,2.27-.31,6.11-2.19,6.11h0c-1.65-.08-2.43-2.12-2.43-6.11M25,23.2c0,6.11,2.66,9.72,7.21,9.72h0c1.18,0,7.21-.47,7.21-9.87,0-6.03-2.74-9.72-7.13-9.72-3.29,0-7.29,2.59-7.29,9.87M47.18,15.83s-.24-2.12-.24-2.19h-4.31v.71c.08,1.57.08,3.13.08,4.94v13.32h5.09v-11.52c0-.63.08-1.33.24-1.8.39-1.1,1.1-1.72,2.04-1.72,1.33,0,1.96,1.1,1.96,3.21v11.91h5.02v-12.3c0-3.21-.86-7.05-5.02-7.05-1.88,0-3.53.86-4.55,2.51h-.31ZM69.9,13.64v12.15c0,.63-.08,1.25-.31,1.65-.24.63-.86,1.33-1.72,1.33-1.33,0-2.04-1.33-2.04-4.23v-10.97h-4.94v11.52c0,5.33,1.57,7.76,5.02,7.76,1.72,0,3.37-.86,4.31-2.27h.16s.24,1.88.31,2.04h4.31v-.31c-.08-1.65-.16-3.53-.16-5.49v-13.17h-4.94ZM84.87,8.7c-.24.08-4.86,1.49-4.94,1.57v3.37h-2.27v3.45h2.27v9.09c0,2.74.47,4.31,1.57,5.41.86.78,2.12,1.18,3.68,1.18,1.18,0,2.27-.08,3.06-.31v-3.84c-.47.08-.86.08-1.25.08-1.33,0-2.04-.94-2.04-2.82v-8.78h3.76v-3.45h-3.76l-.08-4.94M99.29,23.27v3.45c0,.39,0,.63-.08.86-.39,1.25-1.33,1.72-2.19,1.72-.94,0-1.96-.86-1.96-2.66,0-2.98,2.9-3.37,4.23-3.37h0ZM97.49,13.32c-2.43,0-4.62.71-5.88,1.41,0,.08.86,3.06.86,3.29,1.25-.71,2.43-1.1,3.84-1.1,1.72,0,2.74,1.02,2.74,2.66v.47h-.08c-4,0-8.62,1.88-8.62,7.05,0,3.29,2.12,5.72,4.94,5.72,1.72,0,3.13-.78,4.15-2.19h.24s.24,1.72.31,1.88h4.39c-.16-1.1-.24-2.51-.24-4.31v-7.05c0-3.6-.78-7.84-6.66-7.84"/>
    <path class="cls-1" d="M126.33,9.09c0,2.51-2.04,4.55-4.55,4.55s-4.55-2.04-4.55-4.55,2.04-4.55,4.55-4.55c2.51,0,4.55,2.04,4.55,4.55M113.48,0v17.95c0,.39.24.86.47,1.18l4.62,4c.31.24.47.78.47,1.18v8.15h2.04v-13.32c0-.39-.24-.86-.47-1.18l-4.62-4c-.31-.24-.47-.78-.47-1.18V1.88l-2.04-1.88ZM128.13,1.88v10.81c0,.39-.24.86-.47,1.18l-4.62,4c-.31.24-.47.78-.47,1.18v13.32h2.04v-8.15c0-.39.24-.86.47-1.18l4.62-4c.31-.24.47-.78.47-1.18V0l-2.04,1.88Z"/>
  </g>
</svg>