<svg viewBox="0 0 799.05 793.19" xmlns="http://www.w3.org/2000/svg"><path d="m480.47 147.9c24.54-15.33 32.04-58.28 15.47-74.46-37.29 20.34-253.2-36.69-328.77 56.25-75.57 92.95-34.75 198.23 28.83 297.1-.26 11.16-10.88 122.56-10.88 122.56l242.32 45.73s-6.06-66.72-7.81-91.9c0 0 70.27 19.9 83.6-13.64s-5.45-45.01 6.12-56.31c11.57-11.29 4.8-18.7-2.08-25.42 10.49-5.01 16.84-10.32 5.38-21.52-7.77-7.59-7.21-15.57 3.25-19.95 10.47-4.38 37.9-13.14 27.43-30.29s-31.03-56.93-37.75-70.07c6.65-15.64 7.15-37.8 3.84-65.79-2.49-21.04-18.33-49.45-28.94-52.28z" fill="#040706" stroke="#a0a0a0" stroke-miterlimit="10" stroke-width="10"/><path d="m241.42 183.18c-14.58-8.99-19.04-34.18-9.19-43.67 22.16 11.93 150.48-21.52 195.4 32.99 44.91 54.52 20.65 116.28-17.14 174.26.16 6.55 6.47 71.89 6.47 71.89l-144.02 26.82s3.6-39.14 4.64-53.91c0 0-41.76 11.67-49.69-8-7.92-19.67 3.24-26.4-3.64-33.03s-2.85-10.97 1.24-14.91c-6.23-2.94-10.01-6.06-3.2-12.62 4.62-4.45 4.29-9.14-1.93-11.7-6.22-2.57-22.52-7.71-16.3-17.77s18.44-33.4 22.44-41.1c-3.95-9.17-4.25-22.17-2.28-38.59 1.48-12.34 10.9-29.01 17.2-30.66z" fill="#ececec" stroke="#404040" stroke-miterlimit="10" stroke-width="10"/><text/><g fill="#fff"><text font-family="TarzanaNarrowBold, TarzanaNarrowBold" font-size="145.76" transform="matrix(.94 0 0 1 0 717.73)"><tspan x="0" y="0">vil</tspan><tspan letter-spacing="0em" x="138.62" y="0">a</tspan><tspan letter-spacing="0em" x="207.71" y="0">v</tspan><tspan letter-spacing="0em" x="276.36" y="0">e</tspan><tspan letter-spacing="0em" x="349.39" y="0">r</tspan><tspan x="395.6" y="0">de</tspan></text><text font-family="TarzanaNarrowItalic, TarzanaNarrowItalic" font-size="50.92" transform="matrix(.88 0 0 1 126.29 780.46)"><tspan x="0" y="0">ma</tspan><tspan letter-spacing=".02em" x="67.01" y="0">k</tspan><tspan letter-spacing="0em" x="91.75" y="0">ing a di</tspan><tspan letter-spacing="-.01em" x="247.16" y="0">ff</tspan><tspan letter-spacing="0em" x="276.18" y="0">e</tspan><tspan letter-spacing="0em" x="301.69" y="0">r</tspan><tspan x="317.83" y="0">en</tspan><tspan letter-spacing="0em" x="371.6" y="0">c</tspan><tspan letter-spacing="0em" x="394.11" y="0">e in peopl</tspan><tspan letter-spacing="-.02em" x="604.8" y="0">e</tspan><tspan letter-spacing="-.07em" x="629.04" y="0">’</tspan><tspan letter-spacing="0em" x="635.91" y="0">s li</tspan><tspan letter-spacing="0em" x="690.8" y="0">v</tspan><tspan letter-spacing="0em" x="714.79" y="0">es</tspan></text></g></svg>