<?xml version="1.0" encoding="UTF-8"?>
<svg id="Layer_2" data-name="Layer 2" xmlns="http://www.w3.org/2000/svg" viewBox="0 0 620.68 638.56">
  <defs>
    <style>
      .cls-1 {
        fill: #111;
      }

      .cls-2 {
        fill: #6d6d6d;
      }

      .cls-3 {
        fill: #212121;
      }

      .cls-4 {
        fill: #182329;
      }

      .cls-5 {
        fill: #343434;
      }

      .cls-6 {
        fill: #fcfcfc;
      }

      .cls-7 {
        fill: #aeaeae;
      }

      .cls-8 {
        fill: #6e6e6e;
      }

      .cls-9 {
        fill: none;
        stroke: #6e6e6e;
        stroke-miterlimit: 10;
        stroke-width: 6px;
      }
    </style>
  </defs>
  <g id="Layer_2-2" data-name="Layer 2">
    <rect class="cls-5" x="22.38" y="185.9" width="573.92" height="421.21"/>
    <g>
      <path class="cls-7" d="M309.94,152.58l.88-16.96c.04-.76-.44-1.45-1.17-1.65-2.03-.56-5.36-2.39-5.2-7.09.2-5.75,4.48-6.32,6.66-8.26,0,0-.2,6.34,0,0,.36-11.5,2.02-54.08,2.47-65.77.38-9.73,1.44-43.04,2.19-51.36.07-.79.8-1.47,2.16-1.49s2.24.21,2.59,1.44l3.81,74.88s.6,29.3,1.71,41.57c.06.67.52,1.24,1.16,1.43,1.05.3,2.67.96,3.91,2.33,4.21,4.66,2.63,10.68-3.64,12.27-.78.2-1.32.89-1.27,1.69.22,3.42,1.59,21.69,1.59,21.69l235.2-.09h.18c26.69,2.57,49.45,22.22,54.45,48.77.02.1-.2-.04-.2-.04,0,0,1.94,252.42.17,378.28,0,.11-.01.21-.03.32-5.51,28.25-28.27,47.51-56.97,49.32H60.31s-.1-.01-.15-.01c-29.89-2.39-53.73-25.5-56.35-55.44V213.42c2.2-30.41,26.04-53.98,56.41-56.3h.15l249.21.28.37-4.8v-.02ZM319.75,57.36l-1.06-34.88-1.64-.03,1,35.08,1.69-.18h.01ZM317.42,62.99l-.05,11.25,2.2-.03-.47-11.39M182.07,373.8c.85,0,1.6.65,1.63,1.5.31,7.45-8.28,13.73-13.81,17.83-7.47,5.54-18.23,11.18-27.57,12.16-89.15,9.29-79.88-144.62,3.98-123.84,14.54,3.6,25.66,13.21,33.22,25.71.5.83,1.61,1.07,2.39.49l33.08-24.56c.55-.41.8-1.11.6-1.76-1.03-3.47-7.14-11.78-8.62-13.59-26.97-33.08-77.26-40.03-115.26-23.21-55.7,24.66-74.84,91.9-51.02,146.13,23.71,53.98,92.97,79.41,140.13,39.67,1.07-.9,2.69-.15,2.69,1.24v14.62c0,.9.73,1.64,1.64,1.64h36.45c.9,0,1.64-.73,1.64-1.64v-106.88c0-.9-.73-1.64-1.64-1.64h-76.19c-.9,0-1.64.73-1.64,1.64v32.84c0,.9.73,1.64,1.64,1.64h36.66ZM295.36,421.08c7.49-49.2,10.6-99.21,12.08-150,.31-10.63.4-22.71.46-32.02,0-.91-.73-1.65-1.64-1.65l-72.34.04c-.9,0-1.64.73-1.64,1.64v40.07c0,.9.73,1.64,1.64,1.64h59.04c.9,0,1.63.72,1.64,1.62.31,44.14.33,94.68.76,138.66h0ZM404.01,237.46h-72.54c-.92,0-1.65.75-1.64,1.67.22,11.32.35,22.72.83,34.03,1.9,45.06,2.16,99.99,11.84,147.92h0l-.06-138.64c0-.9.73-1.64,1.64-1.64h59.54c.43,0,.85-.17,1.16-.48l.4-.4c.31-.31.48-.72.48-1.16v-39.67c0-.9-.73-1.64-1.64-1.64h0ZM391.71,447.83h45.29c.69,0,1.31-.44,1.54-1.09l15.89-44.83c.23-.66.85-1.09,1.55-1.09l60.33.18c.7,0,1.33.45,1.55,1.12l14.73,44.58c.22.67.85,1.12,1.55,1.12h45.26c1.13,0,1.92-1.12,1.54-2.18l-73.43-207.16c-.23-.66-.85-1.09-1.55-1.09l-41.29.14c-.69,0-1.31.44-1.54,1.09l-72.98,207.02c-.38,1.07.41,2.18,1.54,2.18h.02ZM54.37,484.17c-.14,0-.28.02-.41.05-13.2,3.21-22.79,13.52-23.97,27.24-1.04,12.12-1.04,34.9,0,47.02,1.21,14.07,11.84,25.18,25.72,27.39.1.02.19.02.29.02l507.08.09c.09,0,.17,0,.26-.02,10.97-1.55,21.52-9.43,24.76-20.24,2.9-9.67,2.96-51.06.24-60.84-2.95-10.59-13.29-19.49-24.2-20.82-.08,0-.15-.01-.23-.01l-509.54.12h0Z"/>
      <path class="cls-5" d="M183.72,373.98h-39.73v-36.12h79.46v110.16h-39.73v-19.86c-47.18,43.06-118.66,17.7-142.83-37.31-23.82-54.23-4.68-121.48,51.02-146.13,38-16.82,88.29-9.87,115.26,23.21,1.73,2.12,9.79,13.11,8.66,14.88l-35.19,26.13c-7.57-13.27-19-23.54-34.14-27.29-83.86-20.77-93.13,133.13-3.98,123.84,9.34-.97,20.11-6.62,27.57-12.16,5.9-4.37,15.28-11.23,13.62-19.33v-.02Z"/>
      <path class="cls-5" d="M389.6,448.02l74.13-210.29,43.61-.15,74.59,210.44h-48.76l-15.48-46.83-62.67-.19-16.67,47.01h-48.76,0ZM509.69,367.66l-23.93-73.15-23.93,73.15h47.86Z"/>
      <path class="cls-3" d="M326.89,220.95c2.24,61.33,3.05,132.14,10.45,193.1,1.42,11.68,3.66,23.24,5.31,34.87-6.61.02-13.26-.03-19.87,0l-.59-229.99-6.53.04-.11,229.96c-6.61-.03-13.26.02-19.87,0,4.76-28.51,7.76-57.38,9.93-86.24,3.43-45.65,5.06-91.57,6.28-137.28.04-1.58.02-4.46.02-4.46,0,0-5.45-.23-6.76-.48-1.83-.34-2.1-1.74-2.23-1.79.76-4.8,7.42-5.17,11.25-5.46,5.82-.43,19.25-1.3,21.26,5.46-.11.04-.45,1.33-1.5,1.62,0,0-2.27.9-7.03.65s0,0,0,0h0"/>
      <path class="cls-2" d="M315.56,448.93l.11-229.96,6.53-.04.59,229.99c-2.4.01-4.82.01-7.22,0h0Z"/>
      <path class="cls-3" d="M327.29,129.29c-1.56.9-2.82,1.76-4.57,2.35l1.87,54.53c-3.23-.23-7.61-.23-10.84,0l1.87-54.53c-1.76-.6-3.01-1.46-4.57-2.35,2.72-4.09,13.53-4.09,16.25,0h0Z"/>
      <path class="cls-6" d="M339.94,210.15c.22,1.2,1.62,2.93-.21,5.7-1.07,1.59-2.25,2.2-4.3,2.42-2.01-6.76-15.44-5.89-21.26-5.46-3.82.28-10.49.66-11.25,5.46-1.27-.46-3.75-1.35-4.77-2.92-1.91-2.95.34-4.86.25-5.21,11.55-5.62,29.99-5.36,41.54,0h0Z"/>
      <path class="cls-6" d="M307.43,197.01v.9h22.57v-.9h-22.57Z"/>
      <path class="cls-3" d="M320.6,89.25l1.99,33.72c-1.72-.23-5.5-.23-7.22,0,.73-10.36,1.5-33.72,1.5-33.72h3.74,0Z"/>
      <path class="cls-3" d="M336.22,193.87c1.03.46-.29,2.07-.29,2.07-1.8-.49-7.52-1.41-10.14-1.72-7.07-.83-13.54,0-13.54,0-1.48,0-8.54,1.31-10.38,1.81-.93-1.11-.33-2.03-.05-2.16,14.93-5.01,21.1-5.9,34.4,0h0Z"/>
      <path class="cls-6" d="M313.33,186.53c3.23-.23,7.61-.23,10.84,0s9.76-.17,9.03,4.51c-5.71-1.58-23.13-1.53-28.89,0-.73-4.69,5.65-4.27,9.03-4.51h-.01Z"/>
      <path class="cls-6" d="M315.56,122.97c1.72-.23,5.5-.23,7.22,0s5.05,1.12,5.88,2.7l.33,3.56c-.52.31-1.44-.09-1.7.07-2.72-4.09-13.54-4.09-16.25,0-.26-.15-1.19.25-1.7-.07l.33-3.56c.83-1.57,4.14-2.46,5.88-2.7h.01Z"/>
      <path class="cls-3" d="M319.8,57.67l-2.8-.09.06-35.32h2.29c-.01-.34.44,35.41.44,35.41h0Z"/>
      <path class="cls-8" d="M333.51,190.44c1.34.61,3.28,1.16,2.72,3.43-10.97-3.43-23.41-3.44-34.4,0-2.43-7.19,28.67-4.83,31.68-3.43Z"/>
      <polygon class="cls-3" points="316.91 59.08 319.8 59.15 320.21 76.49 316.96 76.51 316.91 59.08"/>
      <polygon class="cls-2" points="316.82 88.31 316.9 77.32 320.24 77.37 320.5 88.3 316.82 88.31"/>
      <path class="cls-2" d="M339.94,204.24v1.81c-.72-.94-1.23-1.27-.9-2.71.32.11.64.62.9.9h0Z"/>
      <polygon class="cls-7" points="509.69 367.66 461.84 367.66 485.76 294.52 509.69 367.66"/>
      <path class="cls-2" d="M338.13,203.33c-.55-.17-.96.51-.9.9-8.94-2.27-18.37-2.08-27.58-1.84-2.16.05-6.15,3.33-5.41-.16,11.41-.72,23.16-3.53,33.9,1.1h-.01Z"/>
      <path class="cls-7" d="M218.04,563.6v-55.08h27.54c1.43,0,7.91,3.07,9.42,4.12,14.58,10.13,15.15,35.24.88,45.91-1.75,1.31-8.65,5.05-10.3,5.05h-27.54,0ZM233.39,550.05c23.4,4.47,23.43-32.61,0-27.99v27.99Z"/>
      <path class="cls-7" d="M523.24,563.6h-15.8l-10.84-16.25h-4.06v16.25h-15.35v-55.08h29.35c1.96,0,7.59,4.6,9.04,6.31,8.36,9.9,5.1,20.12-2.28,29.34l9.95,19.43h-.01ZM492.53,533.8c8.37,1.08,15.93-1.09,11.31-10.86l-11.31-.88v11.75h0Z"/>
      <polygon class="cls-7" points="60.92 508.52 60.92 528.38 78.08 528.38 78.08 508.52 93.43 508.52 93.43 563.6 78.08 563.6 78.08 541.93 60.92 541.93 60.92 563.6 45.57 563.6 45.57 508.52 60.92 508.52"/>
      <path class="cls-7" d="M154.92,536.1c0,15.41-12.49,27.9-27.91,27.9s-27.91-12.49-27.91-27.9,12.49-27.9,27.91-27.9,27.91,12.49,27.91,27.9ZM135.56,547.04c5.82-6.05,4.54-21.88-4.16-24.57-19.7-6.11-21.03,25.35-7.68,27.53,3.94.64,8.98.01,11.84-2.96Z"/>
      <path class="cls-7" d="M212.71,536.1c0,15.41-12.49,27.9-27.91,27.9s-27.91-12.49-27.91-27.9,12.49-27.9,27.91-27.9,27.91,12.49,27.91,27.9ZM193.35,547.04c5.82-6.05,4.54-21.88-4.16-24.57-19.7-6.11-21.03,25.35-7.68,27.53,3.94.64,8.98.01,11.84-2.96Z"/>
      <polygon class="cls-7" points="327.29 508.52 327.29 522.06 304.72 522.06 304.72 529.29 323.68 529.29 323.68 541.93 304.72 541.93 304.72 550.05 328.2 550.05 328.2 563.6 289.37 563.6 289.37 508.52 327.29 508.52"/>
      <polygon class="cls-7" points="469.96 508.52 469.96 522.06 447.39 522.06 447.39 529.29 466.35 529.29 466.35 541.93 447.39 541.93 447.39 550.05 470.87 550.05 470.87 563.6 432.04 563.6 432.04 508.52 469.96 508.52"/>
      <path class="cls-7" d="M400.43,546.44v17.16h-15.35v-55.08h27.54c2.61,0,8.78,5.45,10.38,7.68,5.88,8.17,4.6,20.16-3.18,26.61-1.03.86-5.37,3.63-6.3,3.63h-13.09ZM410.15,532.68c3.74-9.78-.51-11.69-9.72-10.63v11.75l9.72-1.12Z"/>
      <polygon class="cls-7" points="380.57 508.52 363.45 536.05 379.67 563.6 363.41 563.6 354.83 547.33 345.8 563.6 330 563.6 346.27 536.13 329.1 508.52 344.9 508.52 354.83 524.75 364.77 508.52 380.57 508.52"/>
      <polygon class="cls-7" points="570.19 508.52 570.19 522.06 554.84 522.06 554.84 563.6 539.49 563.6 539.49 522.06 524.59 522.06 523.24 508.52 570.19 508.52"/>
      <path class="cls-5" d="M233.39,550.05v-27.99c23.43-4.62,23.4,32.46,0,27.99Z"/>
      <path class="cls-2" d="M492.45,533.47v-10.59c0-.63.53-1.12,1.16-1.07l9.52.74c.39.03.74.27.9.63,4.05,9.27-3.38,11.34-11.58,10.28h0Z"/>
      <path class="cls-5" d="M135.56,547.04c-2.86,2.97-7.9,3.6-11.84,2.96-13.35-2.18-12.02-33.64,7.68-27.53,8.7,2.7,9.98,18.53,4.16,24.57Z"/>
      <path class="cls-5" d="M193.35,547.04c-2.86,2.97-7.9,3.6-11.84,2.96-13.35-2.18-12.02-33.64,7.68-27.53,8.7,2.7,9.98,18.53,4.16,24.57Z"/>
      <path class="cls-5" d="M411.79,533.68l-11.36.12v-13.16c12.97,0,11.36.6,11.36,13.03Z"/>
    </g>
    <path class="cls-1" d="M298.66,205.63c-.6.13-1.05.34-1.05.34-.52.31-1.27.59-1.02,2.14.01,1.64,1.82,2.11,1.87,2.25,11.55-5.36,26.57-6.02,41.77-.21-.2-.08,2.98-2.2.71-3.61-22.38-7.19-31.41-3.44-42.48-.69"/>
    <path class="cls-2" d="M298.53,204.03v1.81c.72-.94,1.23-1.27.9-2.71-.32.11-.64.62-.9.9h0Z"/>
    <path class="cls-6" d="M319.35,193.04c5.53,0,11.75.86,16.87,2.9,1.3.52,5.64,1.34,5.01,10.73-17.58-6.29-29.59-4.04-44.2-.34-2.42-13.29,16.75-13.29,22.33-13.29h0Z"/>
    <path class="cls-1" d="M332.01,221.69c2.58.19,3.54-1.89,3.51-3.05-.16-7.86-32.05-8.23-32.75-.14.39,3.15,5.79,3.27,5.79,3.27,0,0,5.72-1.32,10.67-1l12.78.92h0Z"/>
    <path class="cls-1" d="M298.78,198.47c-.12.05,0,0,0,0-.12.05-.67.55-.76.96l.16-.1c6.09-1.79,25.08-4.58,42.25.58.12.07.25-.02-.11-.72-.18-.34-.42-.51-.42-.51-20.23-4.65-34.22-1.72-40.82-.27"/>
    <path class="cls-1" d="M296.92,202.52c-.13.07,0,0,0,0-.13.06-.1.77-.11,1.09v-.3c6.42-2.5,24.45-6.56,44.5-.22,0,0-.06.63,0,0,.05-.54-.16-.79-.16-.79-21.35-6.47-36.8-1.91-43.77.1"/>
    <path class="cls-4" d="M315.82,126.6c1.01-.22,2.69-.79,6.96-.12,1.03.16,2.72.18,4.9,2.81l-4.57,2.35c-.3.3-.05.07-.05.07-.93-1.73-4.75-2.8-7.16-.07-.16-.15-1.28-.32-2.78-1.32l-1.69-1.03c.49-1.52,3.38-2.47,4.39-2.7h0Z"/>
    <rect class="cls-9" x="3" y="157.82" width="614.68" height="477.74" rx="57.23" ry="57.23"/>
    <rect class="cls-8" x="247.71" y="121.11" width=".75" height=".19"/>
    <polygon class="cls-7" points="314.62 160.86 309.42 160.87 309.76 154.79 314.82 154.65 314.62 160.86"/>
    <polygon class="cls-3" points="314.82 154.65 323.51 154.66 323.72 160.92 314.62 160.86 314.82 154.65"/>
    <polyline class="cls-7" points="327.6 154.81 328.12 160.98 323.72 160.92 323.52 154.82"/>
    <rect class="cls-9" x="31.12" y="486.11" width="556.34" height="99.13" rx="29.45" ry="29.45"/>
    <path class="cls-5" d="M492.41,534.68l-.06-13.01,13.07.06c.06,12.29,1.91,12.88-13.01,12.95Z"/>
  </g>
</svg>