<?xml version="1.0" encoding="UTF-8"?>
<svg id="Layer_2" data-name="Layer 2" xmlns="http://www.w3.org/2000/svg" viewBox="0 0 939.97 237.68">
  <defs>
    <style>
      .cls-1 {
        fill: #666;
      }

      .cls-2 {
        fill: #aeaeae;
      }
    </style>
  </defs>
  <g id="Layer_2-2" data-name="Layer 2">
    <path class="cls-1" d="M123.37,169.21c-1.13-18.11-2.26-42.44-1.7-62.82h-.57c-3.4,20.37-8.49,43.57-11.88,58.85l-16.41,67.91h-26.03l-16.98-67.34c-3.4-15.28-9.05-39.05-11.88-59.42h-.57c0,20.94-1.7,44.71-2.83,63.38l-2.83,66.21H0L13.58,45.84h39.05l15.28,68.47c5.09,24.33,10.19,45.27,13.58,66.78h.57c2.83-20.94,6.79-42.44,12.45-66.78l15.28-68.47h39.05l11.88,190.14h-33.95l-3.4-66.78ZM216.18,166.94c0-19.81,2.83-43.57,16.98-43.57s16.41,30.56,16.41,43.57c0,16.41-2.26,44.14-15.85,44.14h0c-11.88-.57-17.54-15.28-17.54-44.14M180.52,167.51c0,44.14,19.24,70.17,52.06,70.17h0c8.49,0,52.06-3.4,52.06-71.3,0-43.57-19.81-70.17-51.5-70.17-23.77,0-52.63,18.67-52.63,71.3M340.67,114.31s-1.7-15.28-1.7-15.85h-31.12v5.09c.57,11.32.57,22.64.57,35.65v96.2h36.78v-83.19c0-4.53.57-9.62,1.7-13.02,2.83-7.92,7.92-12.45,14.71-12.45,9.62,0,14.15,7.92,14.15,23.2v86.02h36.22v-88.85c0-23.2-6.22-50.93-36.22-50.93-13.58,0-25.47,6.22-32.82,18.11h-2.26ZM504.79,98.47v87.72c0,4.53-.57,9.05-2.26,11.88-1.7,4.53-6.22,9.62-12.45,9.62-9.62,0-14.71-9.62-14.71-30.56v-79.23h-35.65v83.19c0,38.48,11.32,56.02,36.22,56.02,12.45,0,24.33-6.22,31.12-16.41h1.13s1.7,13.58,2.26,14.71h31.12v-2.26c-.57-11.88-1.13-25.47-1.13-39.61v-95.07h-35.65ZM612.87,62.82c-1.7.57-35.09,10.75-35.65,11.32v24.33h-16.41v24.9h16.41v65.64c0,19.81,3.4,31.12,11.32,39.05,6.22,5.66,15.28,8.49,26.6,8.49,8.49,0,16.41-.57,22.07-2.26v-27.73c-3.4.57-6.22.57-9.05.57-9.62,0-14.71-6.79-14.71-20.37v-63.38h27.16v-24.9h-27.16l-.57-35.65M717,168.07v24.9c0,2.83,0,4.53-.57,6.22-2.83,9.05-9.62,12.45-15.85,12.45-6.79,0-14.15-6.22-14.15-19.24,0-21.5,20.94-24.33,30.56-24.33h0ZM703.98,96.2c-17.54,0-33.39,5.09-42.44,10.19,0,.57,6.22,22.07,6.22,23.77,9.05-5.09,17.54-7.92,27.73-7.92,12.45,0,19.81,7.36,19.81,19.24v3.4h-.57c-28.86,0-62.25,13.58-62.25,50.93,0,23.77,15.28,41.31,35.65,41.31,12.45,0,22.64-5.66,29.99-15.85h1.7s1.7,12.45,2.26,13.58h31.69c-1.13-7.92-1.7-18.11-1.7-31.12v-50.93c0-26.03-5.66-56.59-48.1-56.59"/>
    <path class="cls-2" d="M912.24,65.64c0,18.11-14.71,32.82-32.82,32.82s-32.82-14.71-32.82-32.82,14.71-32.82,32.82-32.82c18.11,0,32.82,14.71,32.82,32.82M819.43,0v129.59c0,2.83,1.7,6.22,3.4,8.49l33.39,28.86c2.26,1.7,3.4,5.66,3.4,8.49v58.85h14.71v-96.2c0-2.83-1.7-6.22-3.4-8.49l-33.39-28.86c-2.26-1.7-3.4-5.66-3.4-8.49V13.58l-14.71-13.58ZM925.25,13.58v78.09c0,2.83-1.7,6.22-3.4,8.49l-33.39,28.86c-2.26,1.7-3.4,5.66-3.4,8.49v96.2h14.71v-58.85c0-2.83,1.7-6.22,3.4-8.49l33.39-28.86c2.26-1.7,3.4-5.66,3.4-8.49V0l-14.71,13.58Z"/>
  </g>
</svg>