<?xml version="1.0" encoding="UTF-8"?>
<svg id="Layer_2" data-name="Layer 2" xmlns="http://www.w3.org/2000/svg" viewBox="0 0 734.36 755.01">
  <defs>
    <style>
      .cls-1 {
        font-family: TarzanaNarrowBold, TarzanaNarrow;
        font-size: 139.49px;
      }

      .cls-1, .cls-2 {
        fill: #666;
      }

      .cls-3 {
        fill: #040706;
        stroke: #a0a0a0;
      }

      .cls-3, .cls-2 {
        stroke-miterlimit: 10;
        stroke-width: 10px;
      }

      .cls-2 {
        stroke: #c6c6c6;
      }

      .cls-4 {
        fill: #a6a6a6;
        font-family: TarzanaNarrow, TarzanaNarrow;
        font-size: 60px;
      }
    </style>
  </defs>
  <g id="Layer_1-2" data-name="Layer 1">
    <path class="cls-3" d="M485.86,147.9c24.54-15.33,32.04-58.28,15.47-74.46-37.29,20.34-253.2-36.69-328.77,56.25-75.57,92.95-34.75,198.23,28.83,297.1-.26,11.16-10.88,122.56-10.88,122.56l242.32,45.73s-6.06-66.72-7.81-91.9c0,0,70.27,19.9,83.6-13.64,13.33-33.54-5.45-45.01,6.12-56.31,11.57-11.29,4.8-18.7-2.08-25.42,10.49-5.01,16.84-10.32,5.38-21.52-7.77-7.59-7.21-15.57,3.25-19.95,10.47-4.38,37.9-13.14,27.43-30.29-10.47-17.15-31.03-56.93-37.75-70.07,6.65-15.64,7.15-37.8,3.84-65.79-2.49-21.04-18.33-49.45-28.94-52.28Z"/>
    <path class="cls-2" d="M246.82,183.18c-14.58-8.99-19.04-34.18-9.19-43.67,22.16,11.93,150.48-21.52,195.4,32.99,44.91,54.52,20.65,116.28-17.14,174.26.16,6.55,6.47,71.89,6.47,71.89l-144.02,26.82s3.6-39.14,4.64-53.91c0,0-41.76,11.67-49.69-8-7.92-19.67,3.24-26.4-3.64-33.03-6.88-6.63-2.85-10.97,1.24-14.91-6.23-2.94-10.01-6.06-3.2-12.62,4.62-4.45,4.29-9.14-1.93-11.7-6.22-2.57-22.52-7.71-16.3-17.77,6.22-10.06,18.44-33.4,22.44-41.1-3.95-9.17-4.25-22.17-2.28-38.59,1.48-12.34,10.9-29.01,17.2-30.66Z"/>
    <text class="cls-1" transform="translate(0 723.21) scale(.96 1)"><tspan x="0" y="0">vilaverde</tspan></text>
    <text class="cls-4" transform="translate(441.11 691.88) scale(1.14 1)"><tspan x="0" y="0">consultancy</tspan></text>
  </g>
</svg>